<svg height="512" viewBox="0 0 60 60" width="512" xmlns="http://www.w3.org/2000/svg"><g id="Page-1" fill="none" fill-rule="evenodd"><g id="039---Book-Shopping" fill-rule="nonzero" transform="translate(0 -1)"><g id="Icons" transform="translate(0 1)"><path id="Shape" d="m13.08 59h33.84c1.9562593.0023599 3.6272184-1.4105524 3.95-3.34l3.13-18.66h-48l3.13 18.66c.3227816 1.9294476 1.9937407 3.3423599 3.95 3.34z" fill="#3f51b5"/><path id="Shape" d="m51 37-3.13 18.66c-.3227816 1.9294476-1.9937407 3.3423599-3.95 3.340003l3-.000003c1.9562593.0023599 3.6272184-1.4105524 3.95-3.34l3.13-18.66z" fill="#283593"/><path id="Shape" d="m57 30v5c0 1.1045695-.8954305 2-2 2h-50c-1.1045695 0-2-.8954305-2-2v-5c0-1.1045695.8954305-2 2-2h7.65l2 3.51c.8284271 1.4359403 2.6640596 1.9284271 4.1 1.1 1.4359403-.8284272 1.9284271-2.6640597 1.1-4.1l-.26-.51h20.82l-.29.51c-.8284271 1.4359403-.3359403 3.2715728 1.1 4.1 1.4359404.8284271 3.2715729.3359403 4.1-1.1l2-3.51h7.68c1.1045695 0 2 .8954305 2 2z" fill="#02a9f4"/><path id="Shape" d="m55 28h-3c1.1045695 0 2 .8954305 2 2v5c0 1.1045695-.8954305 2-2 2h3c1.1045695 0 2-.8954305 2-2v-5c0-1.1045695-.8954305-2-2-2z" fill="#0377bc"/><rect id="Rectangle-path" fill="#283593" height="4" rx="2" width="36" x="12" y="42"/><rect id="Rectangle-path" fill="#283593" height="4" rx="2" width="32" x="14" y="50"/><path id="Shape" d="m18.78 32.6c-1.4331915.8310947-3.268754.3431037-4.1-1.09l-2-3.51-11.28-19.5c-.82842712-1.43594035-.33594035-3.27157288 1.1-4.1s3.27157288-.33594035 4.1 1.1l13 22.5.29.51c.8209405 1.4361919.3243732 3.2658859-1.11 4.09z" fill="#02a9f4"/><path id="Shape" d="m58.6 8.5-11.25 19.5-2 3.51c-.8284271 1.4359403-2.6640596 1.9284271-4.1 1.1-1.4359403-.8284272-1.9284271-2.6640597-1.1-4.1l.29-.51 13-22.5c.5358984-.92889058 1.5266461-1.50132249 2.5990381-1.50166615 1.072392-.00034367 2.0635065.57145312 2.6000001 1.50000003.5364936.92854692.5368602 2.07277558.0009618 3.00166612z" fill="#02a9f4"/><path id="Shape" d="m57.5 4.4c-.9282032-.53589838-2.0717968-.53589838-3 0 .6899013.3975093 1.1934799 1.05297336 1.399805 1.82200353.2063252.76903017.0984706 1.58853726-.299805 2.27799647l-11.25 19.5-2 3.51c-.2644498.4545964-.6483304.8281018-1.11 1.08 1.4331915.8310947 3.268754.3431037 4.1-1.09l2-3.51 11.26-19.49c.3982756-.68945921.5061302-1.5089663.299805-2.27799647-.2063251-.76903017-.7099037-1.42449423-1.399805-1.82200353z" fill="#0377bc"/><path id="Shape" d="m44 5.16v16.18c-.00546.9145215-.7454785 1.65454-1.66 1.66h-24.68c-.9145215-.00546-1.65454-.7454785-1.66-1.66v-16.18c.00546-.91452154.7454785-1.65454002 1.66-1.66h2.34v15.14c.0014602.1439325.0648791.2802538.1740311.3740862.1091521.0938325.2534476.1360728.3959689.1159138 6.59-.76 9.43 2.07 9.43 2.07s2.84-2.83 9.43-2.07c.1425213.020159.2868168-.0220813.3959689-.1159138.109152-.0938324.1725709-.2301537.1740311-.3740862v-15.14h2.34c.9145215.00545998 1.65454.74547846 1.66 1.66z" fill="#a0522d"/><path id="Shape" d="m40 1.65v17c-.0014602.1439325-.0648791.2802538-.1740311.3740862-.1091521.0938325-.2534476.1360728-.3959689.1159138-6.59-.77-9.43 2.06-9.43 2.06s-2.84-2.83-9.43-2.07c-.1425213.020159-.2868168-.0220813-.3959689-.1159138-.109152-.0938324-.1725709-.2301537-.1740311-.3740862v-17c-.0018369-.25431284.1875175-.4694883.44-.5 6.69-.81 9.56 2.06 9.56 2.06s2.87-2.87 9.56-2.05c.2524825.0305117.4418369.24568716.44.5z" fill="#f5f5f5"/></g><g id="Icons_copy" fill="#000"><path id="Shape" d="m14 48h32c1.6568542 0 3-1.3431458 3-3s-1.3431458-3-3-3h-32c-1.6568542 0-3 1.3431458-3 3s1.3431458 3 3 3zm0-4h32c.5522847 0 1 .4477153 1 1s-.4477153 1-1 1h-32c-.5522847 0-1-.4477153-1-1s.4477153-1 1-1z"/><path id="Shape" d="m44 50h-28c-1.6568542 0-3 1.3431458-3 3s1.3431458 3 3 3h28c1.6568542 0 3-1.3431458 3-3s-1.3431458-3-3-3zm0 4h-28c-.5522847 0-1-.4477153-1-1s.4477153-1 1-1h28c.5522847 0 1 .4477153 1 1s-.4477153 1-1 1z"/><path id="Shape" d="m58 4.54c-1.9111825-1.10246803-4.3541414-.44922263-5.46 1.46l-7.54 13.05v-12.89c0-1.46907743-1.1909226-2.66-2.66-2.66h-1.34v-.85c.0010089-.7612507-.5647989-1.40421407-1.32-1.5-5.29-.64-8.39.9-9.68 1.79-1.29-.89-4.39-2.43-9.68-1.79-.7552011.09578593-1.3210089.7387493-1.32 1.5v.85h-1.34c-1.4690774 0-2.66 1.19092257-2.66 2.66v12.89l-7.54-13.05c-.53320495-.92850251-1.42133197-1.60001318-2.46-1.86-1.01379277-.26473335-2.09098602-.12110759-3 .4-1.90922263 1.10585864-2.56246803 3.54881748-1.46 5.46l10.39 18h-5.93c-1.65685425 0-3 1.3431458-3 3v5c0 1.6568542 1.34314575 3 3 3h.15l3 17.83c.40518761 2.4070239 2.4891107 4.169693 4.93 4.17h33.84c2.4408893-.000307 4.5248124-1.7629761 4.93-4.17l3-17.83h.15c1.6568542 0 3-1.3431458 3-3v-5c0-1.6568542-1.3431458-3-3-3h-5.93l10.39-18c1.102468-1.91118252.4492226-4.35414136-1.46-5.46zm-17.5 16.21c.3181728-.2811488.5002714-.6854078.5-1.11v-14.14h1.34c.3622613.00536771.6546323.29773874.66.66v16.18c-.0053677.3622613-.2977387.6546323-.66.66h-11.34v-.33c.83-.61 3.42-2.11 8.32-1.55.4286026.0561602.8601991-.0791709 1.18-.37zm-1.5-17.66v16c-2.7331393-.3435592-5.5076317.0968915-8 1.27v-15.69c.8-.59 3.3-2.05 8-1.58zm-18 0c4.7-.47 7.2 1 8 1.58v15.68c-2.4923683-1.1731085-5.2668607-1.6135592-8-1.27zm-4 3.07c.0053677-.36226126.2977387-.65463229.66-.66h1.34v14.14c.0026104.4275839.1875788.8337298.5084262 1.116381.3208474.2826513.7470727.414938 1.1715738.363619 4.9-.56 7.49.94 8.32 1.55v.33h-11.34c-.3622613-.0053677-.6546323-.2977387-.66-.66zm24.57 18.84-1.74 3h-19.66l-1.74-3zm-38.57-18.73c.30383964-.17625351.64874021-.26937666 1-.27.17577018-.00135464.35084502.02221313.52.07.5104015.13788347.94544306.47225426 1.21.93l13.27 23c.551234.9555913.2246113 2.1770707-.73 2.73-.95335.5444613-2.1673718.2186393-2.72-.73l-13.28-23c-.55123402-.95559126-.22461131-2.17707068.73-2.73zm46.88 50.23c-.246503 1.45921-1.5202601 2.5206743-3 2.5h-33.8c-1.4797399.0206743-2.753497-1.04079-3-2.5l-2.9-17.5h45.64zm5.12-26.5c.5522847 0 1 .4477153 1 1v5c0 .5522847-.4477153 1-1 1h-50c-.55228475 0-1-.4477153-1-1v-5c0-.5522847.44771525-1 1-1h7.08l1.74 3c.5314452.9175795 1.4054825 1.5865957 2.43 1.86.3262297.0879955.6621476.135024 1 .14.7030281.0026018 1.3938183-.1839115 2-.54 1.5608762-.8928423 2.3341102-2.717511 1.89-4.46h17.72c-.4545095 1.7386509.3062759 3.5669899 1.86 4.47.6061817.3560885 1.2969719.5426018 2 .54.3378524-.004976.6737703-.0520045 1-.14 1.0373832-.2686501 1.923592-.9423129 2.46-1.87l1.74-3zm2.73-21-13.28 23c-.5529293.9546113-1.7744087 1.281234-2.73.73-.9509881-.5563412-1.2729259-1.7770221-.72-2.73l13.27-23c.2645569-.45774574.6995985-.79211653 1.21-.93.169155-.04778687.3442298-.07135464.52-.07.3512598.00062334.6961604.09374649 1 .27.9546113.55292932 1.281234 1.77440874.73 2.73z"/></g></g></g></svg>